<svg xmlns="http://www.w3.org/2000/svg" viewBox="0 0 942.93 1079.73"><defs><style>.cls-1{fill:#fed443;stroke:#fed443;}.cls-1,.cls-4,.cls-7{stroke-miterlimit:10;}.cls-2{fill:#faaf18;}.cls-3{fill:#e37525;}.cls-4,.cls-6,.cls-7{fill:#89325f;}.cls-4{stroke:#fff;}.cls-4,.cls-7{stroke-width:3px;}.cls-5{fill:#0a2240;}.cls-6,.cls-7{font-size:180px;}.cls-6{font-family:Comfortaa-Regular, Comfortaa;}.cls-7{stroke:#89325f;font-family:Quicksand-Regular, Quicksand;}</style></defs><title>Dancergy - Logo - Colour</title><g id="Layer_2" data-name="Layer 2"><g id="Layer_1-2" data-name="Layer 1"><path class="cls-1" d="M655.49,211.82c-31.51,47-64.11,66.11-90.43,74.28-77,23.9-134.85-34.6-255-24.24a358.46,358.46,0,0,0-92.87,20.89C234.55,170.94,331.24,85.37,447.91,85.37A233.49,233.49,0,0,1,655.49,211.82Z"/><path class="cls-2" d="M681.42,318.88a233.17,233.17,0,0,1-15,82.54q-1.39,3.69-2.92,7.32-15.43,0-29.85-.55a924.37,924.37,0,0,1-108.73-10C447.14,386.27,417.1,371.43,358.43,371,307,370.66,262.34,381.59,227,394.59a235.13,235.13,0,0,1-9.77-111.84,358.46,358.46,0,0,1,92.87-20.89c120.16-10.36,178,48.14,255,24.24,26.32-8.17,58.92-27.24,90.43-74.28A232.55,232.55,0,0,1,681.42,318.88Z"/><path class="cls-3" d="M663.5,408.74C628.31,493.1,545,552.39,447.91,552.39c-96.41,0-179.17-58.43-214.81-141.81q-3.36-7.84-6.15-16c35.39-13,80.05-23.93,131.48-23.57,58.67.41,88.71,15.25,166.49,27.13a924.37,924.37,0,0,0,108.73,10Q648.05,408.68,663.5,408.74Z"/><path class="cls-4" d="M509.68,416.05a110.68,110.68,0,0,1-12.06,7.44l-1.06.52-.94.4a14.71,14.71,0,0,1-1.7.63,7.66,7.66,0,0,1-2.71.46,4.15,4.15,0,0,1-1.89-.54l-1.7-.79c-1.14-.51-2.33-1-3.48-1.47-4.71-1.9-9.56-3.59-14.5-5.15-9.88-3.1-20.15-5.6-30.52-7.93-20.71-4.56-42.47-8-63.59-7a130.57,130.57,0,0,0-30.12,4.58c-9.26,2.69-17.47,6.65-22.94,11.47a37.36,37.36,0,0,0-3.62,3.75,30.28,30.28,0,0,0-2.68,4.06c-.34.73-.74,1.44-1,2.21l-.25.56c-.08.2-.16.5-.24.74l-.5,1.53c-.34,1-.54,2-.85,3.06s-.44,2-.63,3a42.2,42.2,0,0,0-.27,12,47.07,47.07,0,0,0,3.53,12.2c3.61,8.23,9.79,16.44,17.34,24a184.7,184.7,0,0,0,25.79,21.1A325.14,325.14,0,0,0,388.88,525q7.78,4.15,15.72,8.19T420.68,541c10.83,5,21.85,9.76,33,14.33s22.34,9,33.66,13.3c22.61,8.56,45.51,16.6,68.49,24.58l-.41,1.66c-24-3.83-48-8.32-71.85-13.65q-17.88-4-35.69-8.68t-35.41-10.42c-23.54-7.55-46.83-16.58-69.44-28.72a207.74,207.74,0,0,1-32.94-21.65c-10.44-8.63-20.5-19-28.11-32.29a85.88,85.88,0,0,1-8.65-21.95,82.52,82.52,0,0,1-1.89-24.16c.15-2,.38-4,.62-6s.6-3.94,1-5.84l.66-2.86c.11-.49.2-.93.35-1.46l.46-1.59c.59-2.14,1.37-4.23,2.17-6.31a73.33,73.33,0,0,1,6.16-11.79,79.2,79.2,0,0,1,8-10.19,90.22,90.22,0,0,1,19-15.18,121.32,121.32,0,0,1,20.34-9.73,178.14,178.14,0,0,1,41-9.55A240.12,240.12,0,0,1,412,351.6,194.88,194.88,0,0,1,452,357.89a152.54,152.54,0,0,1,38.05,16,135,135,0,0,1,17.42,12.26c1.37,1.18,2.74,2.34,4.08,3.57l2,1.85a6.8,6.8,0,0,1,1.76,2.17c.93,1.75,1.23,4.31.71,7.66a41.73,41.73,0,0,1-5.2,13.41Z"/><path class="cls-4" d="M580.09,304.92c66-35.67,96-115.55,93.11-186.1C660.05-51,435.05,90.31,425.25,230.12a157.74,157.74,0,0,0,1,41.83c-67.42-16.75-147.6-28.45-250.36,41.27,124.26-43.37,197-24.91,258.22-8.88C447.56,345.63,472.33,385.4,493,428c48.89,89.75,74.48,136-12.42,261.61-7.91,12-16.88,22.3-23.78,32.73,9.59-6.42,17.17-13,25.77-20.11C668.23,538.13,546.37,428.75,490,316.79,518.26,320.73,546.73,319.25,580.09,304.92ZM476,284.6c-10.68-29.84-14.3-60.24-4-92.25,14.81-52.19,69.62-116.71,128.23-128.07,86.31-17.14,65,189.48-45.48,223.48C530.05,294.6,504.11,291.12,476,284.6Z"/><path class="cls-5" d="M375,182.83c-15.94,1.53-29,25.78-21.12,43.31,5.46,12.1,21.33,21.94,35,16.31s16.92-23.27,13.9-35.29C399.51,194.05,387.25,181.65,375,182.83Z"/><path class="cls-4" d="M375,182.83c-15.94,1.53-29,25.78-21.12,43.31,5.46,12.1,21.33,21.94,35,16.31s16.92-23.27,13.9-35.29C399.51,194.05,387.25,181.65,375,182.83Z"/><text class="cls-6" transform="translate(77.79 579.13) rotate(58.45)">d</text><text class="cls-7" transform="translate(165.54 708.88) rotate(38.38)">a</text><text class="cls-7" transform="translate(274.47 789.15) rotate(19.99)">n</text><text class="cls-7" transform="translate(396.75 828.85) rotate(3.16)">c</text><text class="cls-7" transform="matrix(0.97, -0.23, 0.23, 0.97, 513.38, 832.35)">e</text><text class="cls-7" transform="translate(630.22 799.91) rotate(-27.96)">r</text><text class="cls-7" transform="translate(708.71 757.58) rotate(-42.37)">g</text><text class="cls-7" transform="translate(806.61 660.32) rotate(-61.35)">y</text></g></g></svg>